<?xml version="1.0" encoding="utf-8"?>
<svg xmlns="http://www.w3.org/2000/svg"
    xmlns:xlink="http://www.w3.org/1999/xlink"
    width="520" height="520" viewBox="-10 -10 520 520">
<defs>
<style type="text/css"><![CDATA[
line {
    stroke: #000000;
    stroke-linecap: square;
    stroke-width: 5;
}
]]></style>
</defs>
<line x1="38.46153846153846" y1="0.0" x2="38.46153846153846" y2="38.46153846153846"/>
<line x1="0.0" y1="76.92307692307692" x2="38.46153846153846" y2="76.92307692307692"/>
<line x1="0.0" y1="115.38461538461539" x2="38.46153846153846" y2="115.38461538461539"/>
<line x1="38.46153846153846" y1="153.84615384615384" x2="38.46153846153846" y2="192.3076923076923"/>
<line x1="38.46153846153846" y1="230.76923076923077" x2="38.46153846153846" y2="269.2307692307692"/>
<line x1="38.46153846153846" y1="269.2307692307692" x2="38.46153846153846" y2="307.6923076923077"/>
<line x1="0.0" y1="346.15384615384613" x2="38.46153846153846" y2="346.15384615384613"/>
<line x1="38.46153846153846" y1="384.6153846153846" x2="38.46153846153846" y2="423.07692307692304"/>
<line x1="0.0" y1="461.53846153846155" x2="38.46153846153846" y2="461.53846153846155"/>
<line x1="0.0" y1="500.0" x2="38.46153846153846" y2="500.0"/>
<line x1="38.46153846153846" y1="76.92307692307692" x2="76.92307692307692" y2="76.92307692307692"/>
<line x1="76.92307692307692" y1="38.46153846153846" x2="76.92307692307692" y2="76.92307692307692"/>
<line x1="38.46153846153846" y1="153.84615384615384" x2="76.92307692307692" y2="153.84615384615384"/>
<line x1="76.92307692307692" y1="115.38461538461539" x2="76.92307692307692" y2="153.84615384615384"/>
<line x1="38.46153846153846" y1="192.3076923076923" x2="76.92307692307692" y2="192.3076923076923"/>
<line x1="76.92307692307692" y1="192.3076923076923" x2="76.92307692307692" y2="230.76923076923077"/>
<line x1="38.46153846153846" y1="269.2307692307692" x2="76.92307692307692" y2="269.2307692307692"/>
<line x1="38.46153846153846" y1="307.6923076923077" x2="76.92307692307692" y2="307.6923076923077"/>
<line x1="76.92307692307692" y1="307.6923076923077" x2="76.92307692307692" y2="346.15384615384613"/>
<line x1="38.46153846153846" y1="384.6153846153846" x2="76.92307692307692" y2="384.6153846153846"/>
<line x1="76.92307692307692" y1="346.15384615384613" x2="76.92307692307692" y2="384.6153846153846"/>
<line x1="38.46153846153846" y1="461.53846153846155" x2="76.92307692307692" y2="461.53846153846155"/>
<line x1="76.92307692307692" y1="423.07692307692304" x2="76.92307692307692" y2="461.53846153846155"/>
<line x1="38.46153846153846" y1="500.0" x2="76.92307692307692" y2="500.0"/>
<line x1="76.92307692307692" y1="38.46153846153846" x2="115.38461538461539" y2="38.46153846153846"/>
<line x1="76.92307692307692" y1="76.92307692307692" x2="115.38461538461539" y2="76.92307692307692"/>
<line x1="115.38461538461539" y1="76.92307692307692" x2="115.38461538461539" y2="115.38461538461539"/>
<line x1="76.92307692307692" y1="153.84615384615384" x2="115.38461538461539" y2="153.84615384615384"/>
<line x1="76.92307692307692" y1="230.76923076923077" x2="115.38461538461539" y2="230.76923076923077"/>
<line x1="115.38461538461539" y1="192.3076923076923" x2="115.38461538461539" y2="230.76923076923077"/>
<line x1="76.92307692307692" y1="269.2307692307692" x2="115.38461538461539" y2="269.2307692307692"/>
<line x1="115.38461538461539" y1="269.2307692307692" x2="115.38461538461539" y2="307.6923076923077"/>
<line x1="76.92307692307692" y1="384.6153846153846" x2="115.38461538461539" y2="384.6153846153846"/>
<line x1="115.38461538461539" y1="346.15384615384613" x2="115.38461538461539" y2="384.6153846153846"/>
<line x1="115.38461538461539" y1="384.6153846153846" x2="115.38461538461539" y2="423.07692307692304"/>
<line x1="115.38461538461539" y1="423.07692307692304" x2="115.38461538461539" y2="461.53846153846155"/>
<line x1="76.92307692307692" y1="500.0" x2="115.38461538461539" y2="500.0"/>
<line x1="115.38461538461539" y1="38.46153846153846" x2="153.84615384615384" y2="38.46153846153846"/>
<line x1="153.84615384615384" y1="76.92307692307692" x2="153.84615384615384" y2="115.38461538461539"/>
<line x1="153.84615384615384" y1="115.38461538461539" x2="153.84615384615384" y2="153.84615384615384"/>
<line x1="115.38461538461539" y1="192.3076923076923" x2="153.84615384615384" y2="192.3076923076923"/>
<line x1="153.84615384615384" y1="153.84615384615384" x2="153.84615384615384" y2="192.3076923076923"/>
<line x1="115.38461538461539" y1="269.2307692307692" x2="153.84615384615384" y2="269.2307692307692"/>
<line x1="153.84615384615384" y1="230.76923076923077" x2="153.84615384615384" y2="269.2307692307692"/>
<line x1="115.38461538461539" y1="346.15384615384613" x2="153.84615384615384" y2="346.15384615384613"/>
<line x1="153.84615384615384" y1="384.6153846153846" x2="153.84615384615384" y2="423.07692307692304"/>
<line x1="153.84615384615384" y1="423.07692307692304" x2="153.84615384615384" y2="461.53846153846155"/>
<line x1="115.38461538461539" y1="500.0" x2="153.84615384615384" y2="500.0"/>
<line x1="153.84615384615384" y1="461.53846153846155" x2="153.84615384615384" y2="500.0"/>
<line x1="153.84615384615384" y1="38.46153846153846" x2="192.3076923076923" y2="38.46153846153846"/>
<line x1="192.3076923076923" y1="38.46153846153846" x2="192.3076923076923" y2="76.92307692307692"/>
<line x1="192.3076923076923" y1="76.92307692307692" x2="192.3076923076923" y2="115.38461538461539"/>
<line x1="153.84615384615384" y1="153.84615384615384" x2="192.3076923076923" y2="153.84615384615384"/>
<line x1="192.3076923076923" y1="115.38461538461539" x2="192.3076923076923" y2="153.84615384615384"/>
<line x1="153.84615384615384" y1="230.76923076923077" x2="192.3076923076923" y2="230.76923076923077"/>
<line x1="192.3076923076923" y1="192.3076923076923" x2="192.3076923076923" y2="230.76923076923077"/>
<line x1="153.84615384615384" y1="307.6923076923077" x2="192.3076923076923" y2="307.6923076923077"/>
<line x1="153.84615384615384" y1="346.15384615384613" x2="192.3076923076923" y2="346.15384615384613"/>
<line x1="153.84615384615384" y1="384.6153846153846" x2="192.3076923076923" y2="384.6153846153846"/>
<line x1="192.3076923076923" y1="423.07692307692304" x2="192.3076923076923" y2="461.53846153846155"/>
<line x1="153.84615384615384" y1="500.0" x2="192.3076923076923" y2="500.0"/>
<line x1="192.3076923076923" y1="38.46153846153846" x2="230.76923076923077" y2="38.46153846153846"/>
<line x1="230.76923076923077" y1="76.92307692307692" x2="230.76923076923077" y2="115.38461538461539"/>
<line x1="192.3076923076923" y1="153.84615384615384" x2="230.76923076923077" y2="153.84615384615384"/>
<line x1="192.3076923076923" y1="192.3076923076923" x2="230.76923076923077" y2="192.3076923076923"/>
<line x1="192.3076923076923" y1="269.2307692307692" x2="230.76923076923077" y2="269.2307692307692"/>
<line x1="230.76923076923077" y1="230.76923076923077" x2="230.76923076923077" y2="269.2307692307692"/>
<line x1="192.3076923076923" y1="307.6923076923077" x2="230.76923076923077" y2="307.6923076923077"/>
<line x1="192.3076923076923" y1="346.15384615384613" x2="230.76923076923077" y2="346.15384615384613"/>
<line x1="192.3076923076923" y1="384.6153846153846" x2="230.76923076923077" y2="384.6153846153846"/>
<line x1="230.76923076923077" y1="384.6153846153846" x2="230.76923076923077" y2="423.07692307692304"/>
<line x1="192.3076923076923" y1="461.53846153846155" x2="230.76923076923077" y2="461.53846153846155"/>
<line x1="192.3076923076923" y1="500.0" x2="230.76923076923077" y2="500.0"/>
<line x1="230.76923076923077" y1="461.53846153846155" x2="230.76923076923077" y2="500.0"/>
<line x1="269.2307692307692" y1="0.0" x2="269.2307692307692" y2="38.46153846153846"/>
<line x1="230.76923076923077" y1="76.92307692307692" x2="269.2307692307692" y2="76.92307692307692"/>
<line x1="269.2307692307692" y1="38.46153846153846" x2="269.2307692307692" y2="76.92307692307692"/>
<line x1="230.76923076923077" y1="115.38461538461539" x2="269.2307692307692" y2="115.38461538461539"/>
<line x1="269.2307692307692" y1="115.38461538461539" x2="269.2307692307692" y2="153.84615384615384"/>
<line x1="230.76923076923077" y1="192.3076923076923" x2="269.2307692307692" y2="192.3076923076923"/>
<line x1="269.2307692307692" y1="153.84615384615384" x2="269.2307692307692" y2="192.3076923076923"/>
<line x1="230.76923076923077" y1="230.76923076923077" x2="269.2307692307692" y2="230.76923076923077"/>
<line x1="269.2307692307692" y1="192.3076923076923" x2="269.2307692307692" y2="230.76923076923077"/>
<line x1="230.76923076923077" y1="307.6923076923077" x2="269.2307692307692" y2="307.6923076923077"/>
<line x1="269.2307692307692" y1="269.2307692307692" x2="269.2307692307692" y2="307.6923076923077"/>
<line x1="230.76923076923077" y1="346.15384615384613" x2="269.2307692307692" y2="346.15384615384613"/>
<line x1="269.2307692307692" y1="307.6923076923077" x2="269.2307692307692" y2="346.15384615384613"/>
<line x1="269.2307692307692" y1="346.15384615384613" x2="269.2307692307692" y2="384.6153846153846"/>
<line x1="230.76923076923077" y1="423.07692307692304" x2="269.2307692307692" y2="423.07692307692304"/>
<line x1="269.2307692307692" y1="423.07692307692304" x2="269.2307692307692" y2="461.53846153846155"/>
<line x1="230.76923076923077" y1="500.0" x2="269.2307692307692" y2="500.0"/>
<line x1="307.6923076923077" y1="0.0" x2="307.6923076923077" y2="38.46153846153846"/>
<line x1="307.6923076923077" y1="76.92307692307692" x2="307.6923076923077" y2="115.38461538461539"/>
<line x1="307.6923076923077" y1="115.38461538461539" x2="307.6923076923077" y2="153.84615384615384"/>
<line x1="307.6923076923077" y1="153.84615384615384" x2="307.6923076923077" y2="192.3076923076923"/>
<line x1="307.6923076923077" y1="192.3076923076923" x2="307.6923076923077" y2="230.76923076923077"/>
<line x1="269.2307692307692" y1="269.2307692307692" x2="307.6923076923077" y2="269.2307692307692"/>
<line x1="307.6923076923077" y1="230.76923076923077" x2="307.6923076923077" y2="269.2307692307692"/>
<line x1="269.2307692307692" y1="384.6153846153846" x2="307.6923076923077" y2="384.6153846153846"/>
<line x1="307.6923076923077" y1="346.15384615384613" x2="307.6923076923077" y2="384.6153846153846"/>
<line x1="307.6923076923077" y1="384.6153846153846" x2="307.6923076923077" y2="423.07692307692304"/>
<line x1="269.2307692307692" y1="461.53846153846155" x2="307.6923076923077" y2="461.53846153846155"/>
<line x1="269.2307692307692" y1="500.0" x2="307.6923076923077" y2="500.0"/>
<line x1="307.6923076923077" y1="76.92307692307692" x2="346.15384615384613" y2="76.92307692307692"/>
<line x1="307.6923076923077" y1="153.84615384615384" x2="346.15384615384613" y2="153.84615384615384"/>
<line x1="346.15384615384613" y1="192.3076923076923" x2="346.15384615384613" y2="230.76923076923077"/>
<line x1="346.15384615384613" y1="230.76923076923077" x2="346.15384615384613" y2="269.2307692307692"/>
<line x1="307.6923076923077" y1="307.6923076923077" x2="346.15384615384613" y2="307.6923076923077"/>
<line x1="346.15384615384613" y1="269.2307692307692" x2="346.15384615384613" y2="307.6923076923077"/>
<line x1="346.15384615384613" y1="307.6923076923077" x2="346.15384615384613" y2="346.15384615384613"/>
<line x1="307.6923076923077" y1="423.07692307692304" x2="346.15384615384613" y2="423.07692307692304"/>
<line x1="346.15384615384613" y1="384.6153846153846" x2="346.15384615384613" y2="423.07692307692304"/>
<line x1="346.15384615384613" y1="423.07692307692304" x2="346.15384615384613" y2="461.53846153846155"/>
<line x1="307.6923076923077" y1="500.0" x2="346.15384615384613" y2="500.0"/>
<line x1="346.15384615384613" y1="38.46153846153846" x2="384.6153846153846" y2="38.46153846153846"/>
<line x1="346.15384615384613" y1="76.92307692307692" x2="384.6153846153846" y2="76.92307692307692"/>
<line x1="384.6153846153846" y1="38.46153846153846" x2="384.6153846153846" y2="76.92307692307692"/>
<line x1="346.15384615384613" y1="115.38461538461539" x2="384.6153846153846" y2="115.38461538461539"/>
<line x1="346.15384615384613" y1="153.84615384615384" x2="384.6153846153846" y2="153.84615384615384"/>
<line x1="384.6153846153846" y1="153.84615384615384" x2="384.6153846153846" y2="192.3076923076923"/>
<line x1="384.6153846153846" y1="192.3076923076923" x2="384.6153846153846" y2="230.76923076923077"/>
<line x1="384.6153846153846" y1="230.76923076923077" x2="384.6153846153846" y2="269.2307692307692"/>
<line x1="384.6153846153846" y1="269.2307692307692" x2="384.6153846153846" y2="307.6923076923077"/>
<line x1="346.15384615384613" y1="346.15384615384613" x2="384.6153846153846" y2="346.15384615384613"/>
<line x1="384.6153846153846" y1="346.15384615384613" x2="384.6153846153846" y2="384.6153846153846"/>
<line x1="346.15384615384613" y1="423.07692307692304" x2="384.6153846153846" y2="423.07692307692304"/>
<line x1="346.15384615384613" y1="500.0" x2="384.6153846153846" y2="500.0"/>
<line x1="384.6153846153846" y1="461.53846153846155" x2="384.6153846153846" y2="500.0"/>
<line x1="384.6153846153846" y1="38.46153846153846" x2="423.07692307692304" y2="38.46153846153846"/>
<line x1="384.6153846153846" y1="115.38461538461539" x2="423.07692307692304" y2="115.38461538461539"/>
<line x1="423.07692307692304" y1="76.92307692307692" x2="423.07692307692304" y2="115.38461538461539"/>
<line x1="423.07692307692304" y1="115.38461538461539" x2="423.07692307692304" y2="153.84615384615384"/>
<line x1="423.07692307692304" y1="153.84615384615384" x2="423.07692307692304" y2="192.3076923076923"/>
<line x1="384.6153846153846" y1="230.76923076923077" x2="423.07692307692304" y2="230.76923076923077"/>
<line x1="423.07692307692304" y1="269.2307692307692" x2="423.07692307692304" y2="307.6923076923077"/>
<line x1="384.6153846153846" y1="346.15384615384613" x2="423.07692307692304" y2="346.15384615384613"/>
<line x1="423.07692307692304" y1="307.6923076923077" x2="423.07692307692304" y2="346.15384615384613"/>
<line x1="384.6153846153846" y1="423.07692307692304" x2="423.07692307692304" y2="423.07692307692304"/>
<line x1="423.07692307692304" y1="423.07692307692304" x2="423.07692307692304" y2="461.53846153846155"/>
<line x1="384.6153846153846" y1="500.0" x2="423.07692307692304" y2="500.0"/>
<line x1="423.07692307692304" y1="38.46153846153846" x2="461.53846153846155" y2="38.46153846153846"/>
<line x1="461.53846153846155" y1="38.46153846153846" x2="461.53846153846155" y2="76.92307692307692"/>
<line x1="461.53846153846155" y1="76.92307692307692" x2="461.53846153846155" y2="115.38461538461539"/>
<line x1="423.07692307692304" y1="153.84615384615384" x2="461.53846153846155" y2="153.84615384615384"/>
<line x1="423.07692307692304" y1="192.3076923076923" x2="461.53846153846155" y2="192.3076923076923"/>
<line x1="461.53846153846155" y1="192.3076923076923" x2="461.53846153846155" y2="230.76923076923077"/>
<line x1="423.07692307692304" y1="269.2307692307692" x2="461.53846153846155" y2="269.2307692307692"/>
<line x1="461.53846153846155" y1="230.76923076923077" x2="461.53846153846155" y2="269.2307692307692"/>
<line x1="423.07692307692304" y1="307.6923076923077" x2="461.53846153846155" y2="307.6923076923077"/>
<line x1="423.07692307692304" y1="384.6153846153846" x2="461.53846153846155" y2="384.6153846153846"/>
<line x1="461.53846153846155" y1="346.15384615384613" x2="461.53846153846155" y2="384.6153846153846"/>
<line x1="423.07692307692304" y1="423.07692307692304" x2="461.53846153846155" y2="423.07692307692304"/>
<line x1="461.53846153846155" y1="384.6153846153846" x2="461.53846153846155" y2="423.07692307692304"/>
<line x1="423.07692307692304" y1="500.0" x2="461.53846153846155" y2="500.0"/>
<line x1="461.53846153846155" y1="461.53846153846155" x2="461.53846153846155" y2="500.0"/>
<line x1="500.0" y1="0.0" x2="500.0" y2="38.46153846153846"/>
<line x1="500.0" y1="38.46153846153846" x2="500.0" y2="76.92307692307692"/>
<line x1="500.0" y1="76.92307692307692" x2="500.0" y2="115.38461538461539"/>
<line x1="500.0" y1="115.38461538461539" x2="500.0" y2="153.84615384615384"/>
<line x1="500.0" y1="153.84615384615384" x2="500.0" y2="192.3076923076923"/>
<line x1="500.0" y1="192.3076923076923" x2="500.0" y2="230.76923076923077"/>
<line x1="500.0" y1="230.76923076923077" x2="500.0" y2="269.2307692307692"/>
<line x1="461.53846153846155" y1="307.6923076923077" x2="500.0" y2="307.6923076923077"/>
<line x1="500.0" y1="269.2307692307692" x2="500.0" y2="307.6923076923077"/>
<line x1="500.0" y1="307.6923076923077" x2="500.0" y2="346.15384615384613"/>
<line x1="500.0" y1="346.15384615384613" x2="500.0" y2="384.6153846153846"/>
<line x1="500.0" y1="384.6153846153846" x2="500.0" y2="423.07692307692304"/>
<line x1="500.0" y1="423.07692307692304" x2="500.0" y2="461.53846153846155"/>
<line x1="500.0" y1="461.53846153846155" x2="500.0" y2="500.0"/>
<line x1="0.0" y1="0.0" x2="38.46153846153846" y2="0.0"/>
<line x1="38.46153846153846" y1="0.0" x2="76.92307692307692" y2="0.0"/>
<line x1="76.92307692307692" y1="0.0" x2="115.38461538461539" y2="0.0"/>
<line x1="115.38461538461539" y1="0.0" x2="153.84615384615384" y2="0.0"/>
<line x1="153.84615384615384" y1="0.0" x2="192.3076923076923" y2="0.0"/>
<line x1="192.3076923076923" y1="0.0" x2="230.76923076923077" y2="0.0"/>
<line x1="230.76923076923077" y1="0.0" x2="269.2307692307692" y2="0.0"/>
<line x1="269.2307692307692" y1="0.0" x2="307.6923076923077" y2="0.0"/>
<line x1="307.6923076923077" y1="0.0" x2="346.15384615384613" y2="0.0"/>
<line x1="346.15384615384613" y1="0.0" x2="384.6153846153846" y2="0.0"/>
<line x1="384.6153846153846" y1="0.0" x2="423.07692307692304" y2="0.0"/>
<line x1="423.07692307692304" y1="0.0" x2="461.53846153846155" y2="0.0"/>
<line x1="461.53846153846155" y1="0.0" x2="500.0" y2="0.0"/>
<line x1="0.0" y1="38.46153846153846" x2="0.0" y2="76.92307692307692"/>
<line x1="0.0" y1="76.92307692307692" x2="0.0" y2="115.38461538461539"/>
<line x1="0.0" y1="115.38461538461539" x2="0.0" y2="153.84615384615384"/>
<line x1="0.0" y1="153.84615384615384" x2="0.0" y2="192.3076923076923"/>
<line x1="0.0" y1="192.3076923076923" x2="0.0" y2="230.76923076923077"/>
<line x1="0.0" y1="230.76923076923077" x2="0.0" y2="269.2307692307692"/>
<line x1="0.0" y1="269.2307692307692" x2="0.0" y2="307.6923076923077"/>
<line x1="0.0" y1="307.6923076923077" x2="0.0" y2="346.15384615384613"/>
<line x1="0.0" y1="346.15384615384613" x2="0.0" y2="384.6153846153846"/>
<line x1="0.0" y1="384.6153846153846" x2="0.0" y2="423.07692307692304"/>
<line x1="0.0" y1="423.07692307692304" x2="0.0" y2="461.53846153846155"/>
<line x1="0.0" y1="461.53846153846155" x2="0.0" y2="500.0"/>
<rect x="5.0" y="5.0" width="28.46153846153846" height="28.46153846153846" style="fill:green" />
<rect x="466.53846153846155" y="466.53846153846155" width="28.46153846153846" height="28.46153846153846" style="fill:red" />
<rect x="351.15384615384613" y="120.38461538461539" width="28.46153846153846" height="28.46153846153846" style="fill:yellow" />
</svg>
